STARTFONT 2.1
FONT -Adobe-Utopia-Bold-R-Normal--19-140-100-100-P-108-ISO8859-2
SIZE 14 100 100
FONTBOUNDINGBOX 27 23 -3 -5
STARTPROPERTIES 29
FOUNDRY "Adobe"
FAMILY_NAME "Utopia"
WEIGHT_NAME "Bold"
SLANT "R"
SETWIDTH_NAME "Normal"
ADD_STYLE_NAME ""
PIXEL_SIZE 19
POINT_SIZE 140
RESOLUTION_X 100
RESOLUTION_Y 100
SPACING "P"
AVERAGE_WIDTH 108
CHARSET_REGISTRY "ISO8859"
CHARSET_ENCODING "2"
CAP_HEIGHT 13
X_HEIGHT 10
RELATIVE_SETWIDTH 50
RELATIVE_WEIGHT 70
WEIGHT 218
FACE_NAME "Utopia Bold"
COPYRIGHT "Copyright (c) 1989, 1991 Adobe Systems Incorporated.  All Rights Reserved., Copyright 1996 Cub Soft"
NOTICE "Utopia is a registered trademark of Adobe Systems Incorporated."
DESTINATION 0
FONT_ASCENT 18
FONT_DESCENT 5
DEFAULT_CHAR 32
_ADOBE_PSFONT "Utopia-Bold"
_ADOBE_XFONT "-Adobe-Utopia-Bold-R-Normal--19-140-100-100-P-108-ISO8859-2"
_DEC_DEVICE_FONTNAMES "PS=Utopia-Bold"
ENDPROPERTIES
CHARS 191
STARTCHAR space
ENCODING 32
SWIDTH 210 0
DWIDTH 4 0
BBX 0 0 0 0
BITMAP
ENDCHAR
STARTCHAR exclam
ENCODING 33
SWIDTH 278 0
DWIDTH 5 0
BBX 4 14 1 0
BITMAP
60
f0
f0
60
60
60
60
60
60
00
40
f0
f0
60
ENDCHAR
STARTCHAR quotedbl
ENCODING 34
SWIDTH 473 0
DWIDTH 9 0
BBX 6 6 2 8
BITMAP
cc
cc
cc
cc
48
48
ENDCHAR
STARTCHAR numbersign
ENCODING 35
SWIDTH 560 0
DWIDTH 11 0
BBX 10 13 0 0
BITMAP
0c80
0980
0980
1900
7fc0
1300
1200
3200
ff80
2600
6400
6400
4c00
ENDCHAR
STARTCHAR dollar
ENCODING 36
SWIDTH 560 0
DWIDTH 11 0
BBX 9 16 1 -2
BITMAP
0800
3c00
6b00
cb00
c800
f800
7c00
3f00
0f00
0b80
4b80
cb00
eb00
3e00
0800
0800
ENDCHAR
STARTCHAR percent
ENCODING 37
SWIDTH 887 0
DWIDTH 17 0
BBX 15 14 1 -1
BITMAP
3818
47f0
c620
c660
c640
44c0
38bc
0124
0366
0266
0666
0424
083c
0800
ENDCHAR
STARTCHAR ampersand
ENCODING 38
SWIDTH 748 0
DWIDTH 15 0
BBX 13 13 1 0
BITMAP
0c00
1300
3300
3200
3a38
1c38
1e30
6f30
e7e0
e3c0
e1e0
70f8
3f18
ENDCHAR
STARTCHAR apostrophe
ENCODING 39
SWIDTH 252 0
DWIDTH 5 0
BBX 3 6 1 8
BITMAP
40
e0
60
40
40
80
ENDCHAR
STARTCHAR parenleft
ENCODING 40
SWIDTH 365 0
DWIDTH 7 0
BBX 5 17 2 -3
BITMAP
18
30
60
60
40
c0
c0
c0
c0
c0
c0
c0
40
60
60
30
18
ENDCHAR
STARTCHAR parenright
ENCODING 41
SWIDTH 365 0
DWIDTH 7 0
BBX 5 17 0 -3
BITMAP
c0
60
30
30
10
18
18
18
18
18
18
18
10
30
30
60
c0
ENDCHAR
STARTCHAR asterisk
ENCODING 42
SWIDTH 442 0
DWIDTH 9 0
BBX 7 8 1 6
BITMAP
10
92
d6
38
7c
d6
92
10
ENDCHAR
STARTCHAR plus
ENCODING 43
SWIDTH 600 0
DWIDTH 12 0
BBX 10 10 1 0
BITMAP
0c00
0c00
0c00
0c00
ffc0
ffc0
0c00
0c00
0c00
0c00
ENDCHAR
STARTCHAR comma
ENCODING 44
SWIDTH 280 0
DWIDTH 5 0
BBX 3 7 1 -3
BITMAP
40
e0
60
60
40
c0
80
ENDCHAR
STARTCHAR minus
ENCODING 45
SWIDTH 600 0
DWIDTH 12 0
BBX 9 2 1 4
BITMAP
ff80
ff80
ENDCHAR
STARTCHAR period
ENCODING 46
SWIDTH 280 0
DWIDTH 5 0
BBX 4 4 1 0
BITMAP
60
f0
f0
60
ENDCHAR
STARTCHAR slash
ENCODING 47
SWIDTH 378 0
DWIDTH 7 0
BBX 6 14 1 0
BITMAP
0c
0c
18
18
18
30
30
30
30
60
60
60
c0
c0
ENDCHAR
STARTCHAR zero
ENCODING 48
SWIDTH 560 0
DWIDTH 11 0
BBX 9 13 1 0
BITMAP
1c00
3600
6300
e380
e380
e380
e380
e380
e380
e380
6300
3600
1c00
ENDCHAR
STARTCHAR one
ENCODING 49
SWIDTH 560 0
DWIDTH 11 0
BBX 7 13 2 0
BITMAP
18
f8
38
38
38
38
38
38
38
38
38
38
fe
ENDCHAR
STARTCHAR two
ENCODING 50
SWIDTH 560 0
DWIDTH 11 0
BBX 11 13 0 0
BITMAP
1f00
3980
71c0
71c0
01c0
01c0
0380
0600
0c00
3800
7060
ffc0
ffc0
ENDCHAR
STARTCHAR three
ENCODING 51
SWIDTH 560 0
DWIDTH 11 0
BBX 9 13 1 0
BITMAP
1e00
7300
e380
6380
0380
0300
3c00
0300
0380
4380
c380
e700
3e00
ENDCHAR
STARTCHAR four
ENCODING 52
SWIDTH 560 0
DWIDTH 11 0
BBX 10 13 1 0
BITMAP
0700
0700
0f00
1f00
1700
2700
6700
4700
ffc0
0700
0700
0700
1f80
ENDCHAR
STARTCHAR five
ENCODING 53
SWIDTH 560 0
DWIDTH 11 0
BBX 9 13 1 0
BITMAP
7f80
7f00
4000
4000
4000
7e00
4700
0380
0380
4380
e380
6700
3e00
ENDCHAR
STARTCHAR six
ENCODING 54
SWIDTH 560 0
DWIDTH 11 0
BBX 9 13 1 0
BITMAP
0e00
3380
6180
6100
ee00
ff00
e380
e380
e380
e380
6300
3700
1e00
ENDCHAR
STARTCHAR seven
ENCODING 55
SWIDTH 560 0
DWIDTH 11 0
BBX 9 13 1 0
BITMAP
ff80
ff80
8100
8300
0200
0600
0c00
0c00
1800
1800
3800
3800
3800
ENDCHAR
STARTCHAR eight
ENCODING 56
SWIDTH 560 0
DWIDTH 11 0
BBX 9 13 1 0
BITMAP
3e00
7300
e380
e380
e380
7200
7f00
6300
e380
e380
e380
6300
3e00
ENDCHAR
STARTCHAR nine
ENCODING 57
SWIDTH 560 0
DWIDTH 11 0
BBX 9 13 1 0
BITMAP
3c00
7700
6300
e380
e380
e380
7380
3f80
0380
4380
e300
6700
3c00
ENDCHAR
STARTCHAR colon
ENCODING 58
SWIDTH 280 0
DWIDTH 5 0
BBX 4 10 1 0
BITMAP
60
f0
f0
60
00
00
60
f0
f0
60
ENDCHAR
STARTCHAR semicolon
ENCODING 59
SWIDTH 280 0
DWIDTH 5 0
BBX 4 13 1 -3
BITMAP
60
f0
70
60
00
00
40
e0
60
60
40
40
80
ENDCHAR
STARTCHAR less
ENCODING 60
SWIDTH 600 0
DWIDTH 12 0
BBX 9 10 1 0
BITMAP
0080
0380
0f80
3c00
f000
c000
7800
1e00
0780
0080
ENDCHAR
STARTCHAR equal
ENCODING 61
SWIDTH 600 0
DWIDTH 12 0
BBX 9 6 1 2
BITMAP
ff80
ff80
0000
0000
ff80
ff80
ENDCHAR
STARTCHAR greater
ENCODING 62
SWIDTH 600 0
DWIDTH 12 0
BBX 9 10 1 0
BITMAP
8000
e000
f800
1e00
0780
0180
0f00
3c00
f000
8000
ENDCHAR
STARTCHAR question
ENCODING 63
SWIDTH 456 0
DWIDTH 9 0
BBX 8 14 0 0
BITMAP
3c
77
e7
67
0e
1c
38
38
1e
00
10
38
3c
18
ENDCHAR
STARTCHAR at
ENCODING 64
SWIDTH 833 0
DWIDTH 16 0
BBX 14 14 1 0
BITMAP
03e0
0c30
3808
31fc
6364
4664
c6e4
ccc4
cdc8
cdc8
6ef0
6000
3820
0fc0
ENDCHAR
STARTCHAR A
ENCODING 65
SWIDTH 644 0
DWIDTH 13 0
BBX 13 14 0 0
BITMAP
0700
0700
0780
0b80
0b80
0b80
19c0
11c0
1fc0
30e0
20e0
20e0
60f0
f1f8
ENDCHAR
STARTCHAR B
ENCODING 66
SWIDTH 683 0
DWIDTH 13 0
BBX 11 14 1 0
BITMAP
ff80
71c0
70e0
70e0
70e0
71c0
7f00
7180
70c0
70e0
70e0
70e0
71c0
ff80
ENDCHAR
STARTCHAR C
ENCODING 67
SWIDTH 689 0
DWIDTH 13 0
BBX 12 14 1 0
BITMAP
0fe0
3870
7030
7010
e000
e000
e000
e000
e000
e010
7010
7030
3870
0fc0
ENDCHAR
STARTCHAR D
ENCODING 68
SWIDTH 777 0
DWIDTH 15 0
BBX 13 14 1 0
BITMAP
ffc0
70e0
7070
7070
7038
7038
7038
7038
7038
7030
7070
7070
70e0
ff80
ENDCHAR
STARTCHAR E
ENCODING 69
SWIDTH 629 0
DWIDTH 12 0
BBX 11 14 1 0
BITMAP
ffc0
70c0
7040
7040
7080
7080
7f80
7080
7080
7000
7060
7040
70c0
ffc0
ENDCHAR
STARTCHAR F
ENCODING 70
SWIDTH 593 0
DWIDTH 12 0
BBX 10 14 1 0
BITMAP
ffc0
70c0
7040
7040
7000
7080
7080
7f80
7080
7080
7000
7000
7000
fc00
ENDCHAR
STARTCHAR G
ENCODING 71
SWIDTH 726 0
DWIDTH 14 0
BBX 13 14 1 0
BITMAP
07e0
3870
7030
7010
e000
e000
e000
e000
e1f8
e070
6070
7070
3870
0fc0
ENDCHAR
STARTCHAR H
ENCODING 72
SWIDTH 807 0
DWIDTH 16 0
BBX 13 14 1 0
BITMAP
f8f8
7070
7070
7070
7070
7070
7ff0
7070
7070
7070
7070
7070
7070
f8f8
ENDCHAR
STARTCHAR I
ENCODING 73
SWIDTH 384 0
DWIDTH 7 0
BBX 5 14 1 0
BITMAP
f8
70
70
70
70
70
70
70
70
70
70
70
70
f8
ENDCHAR
STARTCHAR J
ENCODING 74
SWIDTH 386 0
DWIDTH 8 0
BBX 6 16 0 -2
BITMAP
7c
38
38
38
38
38
38
38
38
38
38
38
38
38
70
c0
ENDCHAR
STARTCHAR K
ENCODING 75
SWIDTH 707 0
DWIDTH 14 0
BBX 13 14 1 0
BITMAP
fcf8
7060
70c0
7180
7300
7600
7f00
7f00
7780
77c0
73c0
71e0
70f0
f838
ENDCHAR
STARTCHAR L
ENCODING 76
SWIDTH 585 0
DWIDTH 11 0
BBX 10 14 1 0
BITMAP
fc00
7000
7000
7000
7000
7000
7000
7000
7000
7000
7040
7040
70c0
ffc0
ENDCHAR
STARTCHAR M
ENCODING 77
SWIDTH 918 0
DWIDTH 18 0
BBX 16 14 1 0
BITMAP
f81f
781e
781e
5c2e
5c2e
5e6e
4e4e
4e4e
4fce
478e
478e
430e
430e
f33f
ENDCHAR
STARTCHAR N
ENCODING 78
SWIDTH 739 0
DWIDTH 14 0
BBX 12 14 1 0
BITMAP
f0f0
7820
7820
7c20
5e20
4e20
4f20
47a0
43a0
43e0
41e0
40e0
40e0
f060
ENDCHAR
STARTCHAR O
ENCODING 79
SWIDTH 768 0
DWIDTH 15 0
BBX 13 14 1 0
BITMAP
0f80
38e0
7070
6030
e038
e038
e038
e038
e038
e038
6030
7070
38e0
0f80
ENDCHAR
STARTCHAR P
ENCODING 80
SWIDTH 650 0
DWIDTH 13 0
BBX 11 14 1 0
BITMAP
ff80
71c0
70e0
70e0
70e0
70e0
70e0
71c0
7f00
7000
7000
7000
7000
fc00
ENDCHAR
STARTCHAR Q
ENCODING 81
SWIDTH 768 0
DWIDTH 15 0
BBX 13 18 1 -4
BITMAP
0f80
38e0
7070
6030
e038
e038
e038
e038
e038
e038
6030
7070
38e0
1fc0
0780
03c0
01e0
0070
ENDCHAR
STARTCHAR R
ENCODING 82
SWIDTH 684 0
DWIDTH 13 0
BBX 12 14 1 0
BITMAP
ff80
71c0
70e0
70e0
70e0
70e0
71c0
7f00
73c0
71c0
71c0
70e0
70e0
f870
ENDCHAR
STARTCHAR S
ENCODING 83
SWIDTH 561 0
DWIDTH 11 0
BBX 9 14 1 0
BITMAP
1f00
6180
e180
e080
f000
f800
7e00
1f00
0f80
8380
8380
c380
e300
3e00
ENDCHAR
STARTCHAR T
ENCODING 84
SWIDTH 624 0
DWIDTH 12 0
BBX 11 14 0 0
BITMAP
ffe0
ce60
8e20
8e20
0e00
0e00
0e00
0e00
0e00
0e00
0e00
0e00
0e00
3f80
ENDCHAR
STARTCHAR U
ENCODING 85
SWIDTH 786 0
DWIDTH 15 0
BBX 13 14 1 0
BITMAP
f8f8
7070
7070
7070
7070
7070
7070
7070
7070
7070
7070
7070
38e0
0f80
ENDCHAR
STARTCHAR V
ENCODING 86
SWIDTH 645 0
DWIDTH 13 0
BBX 14 14 -1 0
BITMAP
fc7c
7818
3830
3830
1c20
1c20
1c60
0e40
0e40
0ec0
0f80
0780
0780
0700
ENDCHAR
STARTCHAR W
ENCODING 87
SWIDTH 933 0
DWIDTH 18 0
BBX 19 14 0 0
BITMAP
f803e0
7060c0
70e080
30f080
38f080
38f180
39b900
193900
1d3900
1d3a00
1d1e00
0e1e00
0e1e00
0e0c00
ENDCHAR
STARTCHAR X
ENCODING 88
SWIDTH 634 0
DWIDTH 12 0
BBX 14 14 -1 0
BITMAP
7e78
3c30
1c60
0e40
0f80
0780
0380
0380
07c0
05e0
0ce0
18f0
3878
fcfc
ENDCHAR
STARTCHAR Y
ENCODING 89
SWIDTH 617 0
DWIDTH 12 0
BBX 13 14 0 0
BITMAP
fcf8
7830
3820
1c60
1c40
0e80
0e80
0700
0700
0700
0700
0700
0700
1fc0
ENDCHAR
STARTCHAR Z
ENCODING 90
SWIDTH 614 0
DWIDTH 12 0
BBX 12 14 0 0
BITMAP
7ff0
60e0
41e0
43c0
0380
0780
0f00
0f00
1e00
3c00
3c10
7830
f070
fff0
ENDCHAR
STARTCHAR bracketleft
ENCODING 91
SWIDTH 335 0
DWIDTH 7 0
BBX 4 17 2 -3
BITMAP
f0
c0
c0
c0
c0
c0
c0
c0
c0
c0
c0
c0
c0
c0
c0
c0
f0
ENDCHAR
STARTCHAR backslash
ENCODING 92
SWIDTH 379 0
DWIDTH 7 0
BBX 6 14 1 0
BITMAP
c0
c0
60
60
60
30
30
30
30
18
18
18
0c
0c
ENDCHAR
STARTCHAR bracketright
ENCODING 93
SWIDTH 335 0
DWIDTH 7 0
BBX 4 17 0 -3
BITMAP
f0
30
30
30
30
30
30
30
30
30
30
30
30
30
30
30
f0
ENDCHAR
STARTCHAR asciicircum
ENCODING 94
SWIDTH 600 0
DWIDTH 12 0
BBX 9 9 1 4
BITMAP
1c00
1c00
1400
3600
3200
6300
6300
4100
c180
ENDCHAR
STARTCHAR underscore
ENCODING 95
SWIDTH 500 0
DWIDTH 10 0
BBX 10 1 0 -2
BITMAP
ffc0
ENDCHAR
STARTCHAR grave
ENCODING 96
SWIDTH 430 0
DWIDTH 8 0
BBX 5 4 1 10
BITMAP
c0
e0
30
08
ENDCHAR
STARTCHAR a
ENCODING 97
SWIDTH 544 0
DWIDTH 11 0
BBX 10 10 1 0
BITMAP
1e00
6700
e700
4700
3f00
6700
e700
e700
7fc0
3300
ENDCHAR
STARTCHAR b
ENCODING 98
SWIDTH 605 0
DWIDTH 12 0
BBX 11 14 0 0
BITMAP
3000
f000
7000
7000
7780
79c0
70e0
70e0
70e0
70e0
70e0
70c0
71c0
4f00
ENDCHAR
STARTCHAR c
ENCODING 99
SWIDTH 494 0
DWIDTH 10 0
BBX 9 10 1 0
BITMAP
1e00
7700
6300
e200
e000
e000
e000
e080
7100
3e00
ENDCHAR
STARTCHAR d
ENCODING 100
SWIDTH 605 0
DWIDTH 12 0
BBX 10 14 1 0
BITMAP
0180
0780
0380
0380
1f80
7380
6380
e380
e380
e380
e380
e380
7380
3fc0
ENDCHAR
STARTCHAR e
ENCODING 101
SWIDTH 519 0
DWIDTH 10 0
BBX 9 10 1 0
BITMAP
3e00
7300
6380
e380
ff80
e000
e000
e080
7100
3e00
ENDCHAR
STARTCHAR f
ENCODING 102
SWIDTH 342 0
DWIDTH 7 0
BBX 7 14 1 0
BITMAP
1c
36
72
70
fc
70
70
70
70
70
70
70
70
f8
ENDCHAR
STARTCHAR g
ENCODING 103
SWIDTH 533 0
DWIDTH 10 0
BBX 10 14 0 -4
BITMAP
1ec0
33c0
7380
7380
7380
3300
3e00
6000
7f80
3fc0
60c0
e0c0
7180
1f00
ENDCHAR
STARTCHAR h
ENCODING 104
SWIDTH 631 0
DWIDTH 12 0
BBX 11 14 1 0
BITMAP
3000
f000
7000
7000
7780
79c0
71c0
71c0
71c0
71c0
71c0
71c0
71c0
fbe0
ENDCHAR
STARTCHAR i
ENCODING 105
SWIDTH 316 0
DWIDTH 6 0
BBX 5 14 1 0
BITMAP
60
70
70
00
30
f0
70
70
70
70
70
70
70
f8
ENDCHAR
STARTCHAR j
ENCODING 106
SWIDTH 316 0
DWIDTH 6 0
BBX 5 19 0 -4
BITMAP
30
38
38
10
00
18
78
38
38
38
38
38
38
38
38
38
38
70
c0
ENDCHAR
STARTCHAR k
ENCODING 107
SWIDTH 582 0
DWIDTH 11 0
BBX 11 14 1 0
BITMAP
3000
f000
7000
7000
71e0
7380
7600
7c00
7e00
7f00
7700
7380
73c0
f9e0
ENDCHAR
STARTCHAR l
ENCODING 108
SWIDTH 309 0
DWIDTH 6 0
BBX 5 14 1 0
BITMAP
30
f0
70
70
70
70
70
70
70
70
70
70
70
f8
ENDCHAR
STARTCHAR m
ENCODING 109
SWIDTH 948 0
DWIDTH 18 0
BBX 17 10 1 0
BITMAP
379e00
f9e700
71c700
71c700
71c700
71c700
71c700
71c700
71c700
fbef80
ENDCHAR
STARTCHAR n
ENCODING 110
SWIDTH 638 0
DWIDTH 12 0
BBX 11 10 1 0
BITMAP
3780
f9c0
71c0
71c0
71c0
71c0
71c0
71c0
71c0
fbe0
ENDCHAR
STARTCHAR o
ENCODING 111
SWIDTH 585 0
DWIDTH 11 0
BBX 10 10 1 0
BITMAP
1e00
7380
6180
e1c0
e1c0
e1c0
e1c0
6180
7380
1e00
ENDCHAR
STARTCHAR p
ENCODING 112
SWIDTH 615 0
DWIDTH 12 0
BBX 10 14 1 -4
BITMAP
6f00
f380
71c0
71c0
71c0
71c0
71c0
7180
7380
7e00
7000
7000
7000
fc00
ENDCHAR
STARTCHAR q
ENCODING 113
SWIDTH 597 0
DWIDTH 12 0
BBX 10 14 1 -4
BITMAP
1f80
7380
6380
e380
e380
e380
e380
e380
7380
3f80
0380
0380
0380
07c0
ENDCHAR
STARTCHAR r
ENCODING 114
SWIDTH 440 0
DWIDTH 9 0
BBX 8 10 1 0
BITMAP
36
ff
76
70
70
70
70
70
70
fc
ENDCHAR
STARTCHAR s
ENCODING 115
SWIDTH 446 0
DWIDTH 9 0
BBX 8 10 0 0
BITMAP
1e
33
71
78
3c
1f
8f
47
46
3c
ENDCHAR
STARTCHAR t
ENCODING 116
SWIDTH 370 0
DWIDTH 7 0
BBX 7 12 1 0
BITMAP
30
30
fc
70
70
70
70
70
70
70
70
3e
ENDCHAR
STARTCHAR u
ENCODING 117
SWIDTH 629 0
DWIDTH 12 0
BBX 11 10 1 0
BITMAP
30c0
f3c0
71c0
71c0
71c0
71c0
71c0
71c0
7fc0
19e0
ENDCHAR
STARTCHAR v
ENCODING 118
SWIDTH 520 0
DWIDTH 10 0
BBX 11 10 0 0
BITMAP
f9e0
70c0
3880
3980
3900
1d00
1f00
1e00
0e00
0e00
ENDCHAR
STARTCHAR w
ENCODING 119
SWIDTH 774 0
DWIDTH 15 0
BBX 16 10 0 0
BITMAP
f9cf
71c6
39c4
39e4
3bec
1ae8
1e68
1e78
1c70
0c30
ENDCHAR
STARTCHAR x
ENCODING 120
SWIDTH 522 0
DWIDTH 10 0
BBX 10 10 0 0
BITMAP
fbc0
7100
3a00
1e00
1c00
0e00
1600
3700
6380
f7c0
ENDCHAR
STARTCHAR y
ENCODING 121
SWIDTH 524 0
DWIDTH 10 0
BBX 11 14 0 -4
BITMAP
f9e0
70c0
3080
3980
3900
1d00
1f00
1e00
0e00
0c00
0c00
2800
7800
3000
ENDCHAR
STARTCHAR z
ENCODING 122
SWIDTH 483 0
DWIDTH 9 0
BBX 10 10 0 0
BITMAP
7fc0
6380
4780
0f00
1e00
1c00
3c40
78c0
70c0
ff80
ENDCHAR
STARTCHAR braceleft
ENCODING 123
SWIDTH 365 0
DWIDTH 7 0
BBX 5 17 1 -3
BITMAP
18
30
30
30
30
30
30
20
e0
30
30
30
30
30
30
30
18
ENDCHAR
STARTCHAR bar
ENCODING 124
SWIDTH 284 0
DWIDTH 6 0
BBX 2 14 2 0
BITMAP
c0
c0
c0
c0
c0
c0
c0
c0
c0
c0
c0
c0
c0
c0
ENDCHAR
STARTCHAR braceright
ENCODING 125
SWIDTH 365 0
DWIDTH 7 0
BBX 5 17 1 -3
BITMAP
c0
60
60
60
60
60
60
60
38
20
60
60
60
60
60
60
c0
ENDCHAR
STARTCHAR asciitilde
ENCODING 126
SWIDTH 600 0
DWIDTH 12 0
BBX 10 4 1 3
BITMAP
1040
7f80
4f80
8000
ENDCHAR
STARTCHAR nobreakspace
ENCODING 160
SWIDTH 210 0
DWIDTH 4 0
BBX 0 0 0 0
BITMAP
ENDCHAR
STARTCHAR Aogonek
ENCODING 161
SWIDTH 644 0
DWIDTH 13 0
BBX 13 19 0 -5
BITMAP
0700
0700
0780
0b80
0b80
0b80
19c0
11c0
1fc0
30e0
20e0
20e0
60f0
f1f8
0180
0200
0600
0600
0380
ENDCHAR
STARTCHAR breve
ENCODING 162
SWIDTH 430 0
DWIDTH 8 0
BBX 6 3 1 11
BITMAP
84
f8
78
ENDCHAR
STARTCHAR Lstroke
ENCODING 163
SWIDTH 591 0
DWIDTH 11 0
BBX 11 14 0 0
BITMAP
7e00
3800
3800
3800
3900
3e00
3c00
3800
7800
f800
3820
3820
3860
7fe0
ENDCHAR
STARTCHAR currency
ENCODING 164
SWIDTH 560 0
DWIDTH 11 0
BBX 9 9 1 2
BITMAP
dd80
ff80
6300
c180
c180
c180
6300
ff80
dd80
ENDCHAR
STARTCHAR Lcaron
ENCODING 165
SWIDTH 585 0
DWIDTH 11 0
BBX 10 16 1 0
BITMAP
0080
01c0
fcc0
7080
7080
7100
7000
7000
7000
7000
7000
7000
7040
7040
70c0
ffc0
ENDCHAR
STARTCHAR Sacute
ENCODING 166
SWIDTH 561 0
DWIDTH 11 0
BBX 9 19 1 0
BITMAP
0180
0380
0600
0800
0000
1f00
6180
e180
e080
f000
f800
7e00
1f00
0f80
8380
8380
c380
e300
3e00
ENDCHAR
STARTCHAR section
ENCODING 167
SWIDTH 566 0
DWIDTH 11 0
BBX 9 16 1 -2
BITMAP
1e00
2700
6200
7000
fc00
9e00
8f00
c380
e180
7880
3c80
0f00
0700
6300
7200
3c00
ENDCHAR
STARTCHAR diaeresis
ENCODING 168
SWIDTH 430 0
DWIDTH 8 0
BBX 8 3 0 11
BITMAP
66
e7
66
ENDCHAR
STARTCHAR Scaron
ENCODING 169
SWIDTH 561 0
DWIDTH 11 0
BBX 9 19 1 0
BITMAP
4100
3600
1c00
0800
0000
1f00
6180
e180
e080
f000
f800
7e00
1f00
0f80
8380
8380
c380
e300
3e00
ENDCHAR
STARTCHAR Scedilla
ENCODING 170
SWIDTH 561 0
DWIDTH 11 0
BBX 9 20 1 -6
BITMAP
1f00
6180
e180
e080
f000
f800
7e00
1f00
0f80
8380
8380
c380
e300
3e00
0400
0800
0e00
0600
0600
1c00
ENDCHAR
STARTCHAR Tcaron
ENCODING 171
SWIDTH 624 0
DWIDTH 12 0
BBX 11 19 0 0
BITMAP
2080
1b00
0e00
0400
0000
ffe0
ce60
8e20
8e20
0e00
0e00
0e00
0e00
0e00
0e00
0e00
0e00
0e00
3f80
ENDCHAR
STARTCHAR Zacute
ENCODING 172
SWIDTH 614 0
DWIDTH 12 0
BBX 12 19 0 0
BITMAP
0060
00e0
0180
0200
0000
7ff0
60e0
41e0
43c0
0380
0780
0f00
0f00
1e00
3c00
3c10
7830
f070
fff0
ENDCHAR
STARTCHAR hyphen
ENCODING 173
SWIDTH 392 0
DWIDTH 8 0
BBX 5 2 1 4
BITMAP
f8
f8
ENDCHAR
STARTCHAR Zcaron
ENCODING 174
SWIDTH 614 0
DWIDTH 12 0
BBX 12 19 0 0
BITMAP
1040
0d80
0700
0200
0000
7ff0
60e0
41e0
43c0
0380
0780
0f00
0f00
1e00
3c00
3c10
7830
f070
fff0
ENDCHAR
STARTCHAR Zabovedot
ENCODING 175
SWIDTH 614 0
DWIDTH 12 0
BBX 12 18 0 0
BITMAP
0700
0700
0700
0000
7ff0
60e0
41e0
43c0
0380
0780
0f00
0f00
1e00
3c00
3c10
7830
f070
fff0
ENDCHAR
STARTCHAR degree
ENCODING 176
SWIDTH 396 0
DWIDTH 8 0
BBX 6 6 1 7
BITMAP
78
cc
84
84
cc
78
ENDCHAR
STARTCHAR aogonek
ENCODING 177
SWIDTH 544 0
DWIDTH 11 0
BBX 10 15 1 -5
BITMAP
1e00
6700
e700
4700
3f00
6700
e700
e700
7fc0
3300
0600
0800
1800
1800
0e00
ENDCHAR
STARTCHAR ogonek
ENCODING 178
SWIDTH 430 0
DWIDTH 8 0
BBX 4 5 2 -5
BITMAP
30
40
c0
c0
70
ENDCHAR
STARTCHAR lstroke
ENCODING 179
SWIDTH 321 0
DWIDTH 6 0
BBX 7 14 0 0
BITMAP
18
78
38
38
38
3e
38
38
78
b8
38
38
38
7c
ENDCHAR
STARTCHAR acute
ENCODING 180
SWIDTH 430 0
DWIDTH 8 0
BBX 5 4 2 10
BITMAP
18
38
60
80
ENDCHAR
STARTCHAR lcaron
ENCODING 181
SWIDTH 462 0
DWIDTH 9 0
BBX 8 16 1 0
BITMAP
02
07
33
f2
72
74
70
70
70
70
70
70
70
70
70
f8
ENDCHAR
STARTCHAR sacute
ENCODING 182
SWIDTH 446 0
DWIDTH 9 0
BBX 9 15 0 0
BITMAP
0180
0380
0600
0800
0000
1e00
3300
7100
7800
3c00
1f00
8f00
4700
4600
3c00
ENDCHAR
STARTCHAR caron
ENCODING 183
SWIDTH 430 0
DWIDTH 8 0
BBX 7 4 1 10
BITMAP
82
6c
38
10
ENDCHAR
STARTCHAR cedilla
ENCODING 184
SWIDTH 430 0
DWIDTH 8 0
BBX 4 6 2 -5
BITMAP
20
40
70
30
30
e0
ENDCHAR
STARTCHAR scaron
ENCODING 185
SWIDTH 446 0
DWIDTH 9 0
BBX 8 15 0 0
BITMAP
41
36
1c
08
00
1e
33
71
78
3c
1f
8f
47
46
3c
ENDCHAR
STARTCHAR scedilla
ENCODING 186
SWIDTH 446 0
DWIDTH 9 0
BBX 8 16 0 -6
BITMAP
1e
33
71
78
3c
1f
8f
47
46
3c
08
10
1c
0c
0c
38
ENDCHAR
STARTCHAR tcaron
ENCODING 187
SWIDTH 411 0
DWIDTH 8 0
BBX 8 17 1 0
BITMAP
02
07
03
02
02
34
30
fc
70
70
70
70
70
70
70
70
3e
ENDCHAR
STARTCHAR zacute
ENCODING 188
SWIDTH 483 0
DWIDTH 9 0
BBX 10 15 0 0
BITMAP
00c0
01c0
0300
0400
0000
7fc0
6380
4780
0f00
1e00
1c00
3c40
78c0
70c0
ff80
ENDCHAR
STARTCHAR doubleacute
ENCODING 189
SWIDTH 430 0
DWIDTH 8 0
BBX 7 4 1 10
BITMAP
66
66
4c
88
ENDCHAR
STARTCHAR zcaron
ENCODING 190
SWIDTH 483 0
DWIDTH 9 0
BBX 10 15 0 0
BITMAP
2080
1b00
0e00
0400
0000
7fc0
6380
4780
0f00
1e00
1c00
3c40
78c0
70c0
ff80
ENDCHAR
STARTCHAR zabovedot
ENCODING 191
SWIDTH 483 0
DWIDTH 9 0
BBX 10 14 0 0
BITMAP
0e00
0e00
0e00
0000
7fc0
6380
4780
0f00
1e00
1c00
3c40
78c0
70c0
ff80
ENDCHAR
STARTCHAR Racute
ENCODING 192
SWIDTH 684 0
DWIDTH 13 0
BBX 12 19 1 0
BITMAP
00c0
01c0
0300
0400
0000
ff80
71c0
70e0
70e0
70e0
70e0
71c0
7f00
73c0
71c0
71c0
70e0
70e0
f870
ENDCHAR
STARTCHAR Aacute
ENCODING 193
SWIDTH 644 0
DWIDTH 13 0
BBX 13 18 0 0
BITMAP
00c0
01c0
0700
0400
0700
0700
0780
0b80
0b80
0b80
19c0
11c0
1fc0
30e0
20e0
20e0
60f0
f1f8
ENDCHAR
STARTCHAR Acircumflex
ENCODING 194
SWIDTH 644 0
DWIDTH 13 0
BBX 13 18 0 0
BITMAP
0300
0780
08c0
1000
0700
0700
0780
0b80
0b80
0b80
19c0
11c0
1fc0
30e0
20e0
20e0
60f0
f1f8
ENDCHAR
STARTCHAR Abreve
ENCODING 195
SWIDTH 644 0
DWIDTH 13 0
BBX 13 18 0 0
BITMAP
0840
0f80
0780
0000
0700
0700
0780
0b80
0b80
0b80
19c0
11c0
1fc0
30e0
20e0
20e0
60f0
f1f8
ENDCHAR
STARTCHAR Adiaeresis
ENCODING 196
SWIDTH 644 0
DWIDTH 13 0
BBX 14 17 -1 0
BITMAP
1ce0
1ce0
1ce0
0380
0780
0780
07c0
0dc0
09c0
09c0
18e0
1fe0
10e0
3070
2070
6078
f8fc
ENDCHAR
STARTCHAR Lacute
ENCODING 197
SWIDTH 585 0
DWIDTH 11 0
BBX 10 19 1 0
BITMAP
0600
0e00
1800
2000
0000
fc00
7000
7000
7000
7000
7000
7000
7000
7000
7000
7040
7040
70c0
ffc0
ENDCHAR
STARTCHAR Cacute
ENCODING 198
SWIDTH 689 0
DWIDTH 13 0
BBX 12 19 1 0
BITMAP
0060
00e0
0180
0200
0000
0fe0
3870
7030
7010
e000
e000
e000
e000
e000
e010
7010
7030
3870
0fc0
ENDCHAR
STARTCHAR Ccedilla
ENCODING 199
SWIDTH 689 0
DWIDTH 13 0
BBX 12 19 1 -5
BITMAP
0fe0
3870
7030
7010
e000
e000
e000
e000
e000
e010
7010
7030
3c70
0fc0
0200
0780
0180
0180
0700
ENDCHAR
STARTCHAR Ccaron
ENCODING 200
SWIDTH 689 0
DWIDTH 13 0
BBX 12 19 1 0
BITMAP
1040
0d80
0700
0200
0000
0fe0
3870
7030
7010
e000
e000
e000
e000
e000
e010
7010
7030
3870
0fc0
ENDCHAR
STARTCHAR Eacute
ENCODING 201
SWIDTH 629 0
DWIDTH 12 0
BBX 11 18 1 0
BITMAP
0180
0780
0e00
1000
ffc0
70c0
7040
7040
7080
7080
7f80
7080
7080
7000
7060
7040
70c0
ffc0
ENDCHAR
STARTCHAR Eogonek
ENCODING 202
SWIDTH 629 0
DWIDTH 12 0
BBX 11 19 1 -5
BITMAP
ffc0
70c0
7040
7040
7080
7080
7f80
7080
7080
7000
7060
7040
70c0
ffc0
0300
0400
0c00
0c00
0700
ENDCHAR
STARTCHAR Ediaeresis
ENCODING 203
SWIDTH 629 0
DWIDTH 12 0
BBX 11 17 1 0
BITMAP
7380
7380
7380
ffc0
70c0
7040
7040
7080
7080
7f80
7080
7080
7000
7060
7040
70c0
ffc0
ENDCHAR
STARTCHAR Ecaron
ENCODING 204
SWIDTH 629 0
DWIDTH 12 0
BBX 11 19 1 0
BITMAP
4100
3600
1c00
0800
0000
ffc0
70c0
7040
7040
7080
7080
7f80
7080
7080
7000
7060
7040
70c0
ffc0
ENDCHAR
STARTCHAR Iacute
ENCODING 205
SWIDTH 384 0
DWIDTH 7 0
BBX 6 18 1 0
BITMAP
0c
3c
70
80
f8
70
70
70
70
70
70
70
70
70
70
70
70
f8
ENDCHAR
STARTCHAR Icircumflex
ENCODING 206
SWIDTH 384 0
DWIDTH 7 0
BBX 7 18 0 0
BITMAP
10
3c
c6
00
7c
38
38
38
38
38
38
38
38
38
38
38
38
7c
ENDCHAR
STARTCHAR Dcaron
ENCODING 207
SWIDTH 777 0
DWIDTH 15 0
BBX 13 19 1 0
BITMAP
2080
1b00
0e00
0400
0000
ffc0
70e0
7070
7070
7038
7038
7038
7038
7038
7030
7070
7070
70e0
ff80
ENDCHAR
STARTCHAR Dstroke
ENCODING 208
SWIDTH 783 0
DWIDTH 15 0
BBX 14 14 0 0
BITMAP
7fe0
3870
3838
3838
381c
381c
ff1c
381c
381c
381c
3838
3838
3870
7fc0
ENDCHAR
STARTCHAR Nacute
ENCODING 209
SWIDTH 739 0
DWIDTH 14 0
BBX 12 19 1 0
BITMAP
00c0
01c0
0300
0400
0000
f0f0
7820
7820
7c20
5e20
4e20
4f20
47a0
43a0
43e0
41e0
40e0
40e0
f060
ENDCHAR
STARTCHAR Ncaron
ENCODING 210
SWIDTH 739 0
DWIDTH 14 0
BBX 12 19 1 0
BITMAP
2080
1b00
0e00
0400
0000
f0f0
7820
7820
7c20
5e20
4e20
4f20
47a0
43a0
43e0
41e0
40e0
40e0
f060
ENDCHAR
STARTCHAR Oacute
ENCODING 211
SWIDTH 768 0
DWIDTH 15 0
BBX 13 18 1 0
BITMAP
0040
01c0
0780
0c00
0f80
38e0
7070
6030
e038
e038
e038
e038
e038
e038
6030
7070
38e0
0f80
ENDCHAR
STARTCHAR Ocircumflex
ENCODING 212
SWIDTH 768 0
DWIDTH 15 0
BBX 13 18 1 0
BITMAP
0700
0f80
18c0
2020
0f80
38e0
7070
6030
e038
e038
e038
e038
e038
e038
6030
7070
38e0
0f80
ENDCHAR
STARTCHAR Odoubleacute
ENCODING 213
SWIDTH 768 0
DWIDTH 15 0
BBX 13 19 1 0
BITMAP
0660
0660
04c0
0880
0000
0f80
38e0
7070
6030
e038
e038
e038
e038
e038
e038
6030
7070
38e0
0f80
ENDCHAR
STARTCHAR Odiaeresis
ENCODING 214
SWIDTH 768 0
DWIDTH 15 0
BBX 13 17 1 0
BITMAP
1dc0
1dc0
1dc0
0f80
38e0
7070
6030
e038
e038
e038
e038
e038
e038
6030
7070
38e0
0f80
ENDCHAR
STARTCHAR multiply
ENCODING 215
SWIDTH 600 0
DWIDTH 12 0
BBX 9 9 1 0
BITMAP
4100
e380
7700
3e00
1c00
3e00
7700
e380
4100
ENDCHAR
STARTCHAR Rcaron
ENCODING 216
SWIDTH 684 0
DWIDTH 13 0
BBX 12 19 1 0
BITMAP
2080
1b00
0e00
0400
0000
ff80
71c0
70e0
70e0
70e0
70e0
71c0
7f00
73c0
71c0
71c0
70e0
70e0
f870
ENDCHAR
STARTCHAR Uring
ENCODING 217
SWIDTH 786 0
DWIDTH 15 0
BBX 13 20 1 0
BITMAP
0300
0480
0480
0480
0300
0000
f8f8
7070
7070
7070
7070
7070
7070
7070
7070
7070
7070
7070
38e0
0f80
ENDCHAR
STARTCHAR Uacute
ENCODING 218
SWIDTH 786 0
DWIDTH 15 0
BBX 13 18 1 0
BITMAP
00c0
01c0
0700
0800
f8f8
7070
7070
7070
7070
7070
7070
7070
7070
7070
7070
7070
38e0
0f80
ENDCHAR
STARTCHAR Udoubleacute
ENCODING 219
SWIDTH 786 0
DWIDTH 15 0
BBX 13 19 1 0
BITMAP
0660
0660
04c0
0880
0000
f8f8
7070
7070
7070
7070
7070
7070
7070
7070
7070
7070
7070
38e0
0f80
ENDCHAR
STARTCHAR Udiaeresis
ENCODING 220
SWIDTH 786 0
DWIDTH 15 0
BBX 13 17 1 0
BITMAP
1ce0
1ce0
1ce0
f8f8
7070
7070
7070
7070
7070
7070
7070
7070
7070
7070
7070
38e0
0f80
ENDCHAR
STARTCHAR Yacute
ENCODING 221
SWIDTH 617 0
DWIDTH 12 0
BBX 13 18 0 0
BITMAP
00c0
01e0
0700
0400
fcf8
7830
3820
1c60
1c40
0e80
0e80
0700
0700
0700
0700
0700
0700
1fc0
ENDCHAR
STARTCHAR Tcedilla
ENCODING 222
SWIDTH 624 0
DWIDTH 12 0
BBX 11 20 0 -6
BITMAP
ffe0
ce60
8e20
8e20
0e00
0e00
0e00
0e00
0e00
0e00
0e00
0e00
0e00
3f80
0200
0400
0700
0300
0300
0e00
ENDCHAR
STARTCHAR ssharp
ENCODING 223
SWIDTH 662 0
DWIDTH 13 0
BBX 11 14 1 0
BITMAP
1f00
3980
71c0
71c0
7100
7300
7700
7780
73c0
71c0
70e0
7060
7760
fbc0
ENDCHAR
STARTCHAR racute
ENCODING 224
SWIDTH 440 0
DWIDTH 9 0
BBX 8 15 1 0
BITMAP
03
07
0c
10
00
36
ff
76
70
70
70
70
70
70
fc
ENDCHAR
STARTCHAR aacute
ENCODING 225
SWIDTH 544 0
DWIDTH 11 0
BBX 10 15 1 0
BITMAP
0200
0700
0e00
0800
1000
1e00
6700
e700
4700
3f00
6700
e700
e700
7fc0
3300
ENDCHAR
STARTCHAR acircumflex
ENCODING 226
SWIDTH 544 0
DWIDTH 11 0
BBX 10 14 1 0
BITMAP
0800
1c00
2600
4100
1e00
6700
e700
4700
3f00
6700
e700
e700
7fc0
3300
ENDCHAR
STARTCHAR abreve
ENCODING 227
SWIDTH 544 0
DWIDTH 11 0
BBX 10 14 1 0
BITMAP
2100
3e00
1e00
0000
1e00
6700
e700
4700
3f00
6700
e700
e700
7fc0
3300
ENDCHAR
STARTCHAR adiaeresis
ENCODING 228
SWIDTH 544 0
DWIDTH 11 0
BBX 10 14 1 0
BITMAP
7700
7700
7700
0000
1e00
6700
e700
4700
3f00
6700
e700
e700
7fc0
3300
ENDCHAR
STARTCHAR lacute
ENCODING 229
SWIDTH 309 0
DWIDTH 6 0
BBX 6 19 1 0
BITMAP
0c
1c
30
40
00
30
f0
70
70
70
70
70
70
70
70
70
70
70
f8
ENDCHAR
STARTCHAR cacute
ENCODING 230
SWIDTH 494 0
DWIDTH 10 0
BBX 9 15 1 0
BITMAP
0180
0380
0600
0800
0000
1e00
7700
6300
e200
e000
e000
e000
e080
7100
3e00
ENDCHAR
STARTCHAR ccedilla
ENCODING 231
SWIDTH 494 0
DWIDTH 10 0
BBX 8 15 1 -5
BITMAP
1c
77
67
e2
e0
e0
e0
e1
71
3e
10
1c
0c
0c
18
ENDCHAR
STARTCHAR ccaron
ENCODING 232
SWIDTH 494 0
DWIDTH 10 0
BBX 9 15 1 0
BITMAP
4100
3600
1c00
0800
0000
1e00
7700
6300
e200
e000
e000
e000
e080
7100
3e00
ENDCHAR
STARTCHAR eacute
ENCODING 233
SWIDTH 519 0
DWIDTH 10 0
BBX 9 15 1 0
BITMAP
0100
0300
0600
0c00
1000
3e00
7300
6380
e380
ff80
e000
e000
e080
7100
3e00
ENDCHAR
STARTCHAR eogonek
ENCODING 234
SWIDTH 519 0
DWIDTH 10 0
BBX 9 15 1 -5
BITMAP
3e00
7300
6380
e380
ff80
e000
e000
e080
7100
3e00
0600
0800
1800
1800
0e00
ENDCHAR
STARTCHAR ediaeresis
ENCODING 235
SWIDTH 519 0
DWIDTH 10 0
BBX 9 14 1 0
BITMAP
e700
e700
e700
0000
3e00
7300
6380
e380
ff80
e000
e000
e180
7100
3e00
ENDCHAR
STARTCHAR ecaron
ENCODING 236
SWIDTH 519 0
DWIDTH 10 0
BBX 9 15 1 0
BITMAP
4100
3600
1c00
0800
0000
3e00
7300
6380
e380
ff80
e000
e000
e080
7100
3e00
ENDCHAR
STARTCHAR iacute
ENCODING 237
SWIDTH 316 0
DWIDTH 6 0
BBX 6 15 1 0
BITMAP
08
1c
38
60
80
30
f0
70
70
70
70
70
70
70
f8
ENDCHAR
STARTCHAR icircumflex
ENCODING 238
SWIDTH 316 0
DWIDTH 6 0
BBX 7 14 0 0
BITMAP
10
38
44
82
18
78
38
38
38
38
38
38
38
7c
ENDCHAR
STARTCHAR dcaron
ENCODING 239
SWIDTH 771 0
DWIDTH 15 0
BBX 13 16 1 0
BITMAP
0010
0038
0198
0790
0390
03a0
1f80
7380
6380
e380
e380
e380
e380
e380
7380
3fc0
ENDCHAR
STARTCHAR dstroke
ENCODING 240
SWIDTH 720 0
DWIDTH 14 0
BBX 12 14 1 0
BITMAP
0180
0380
1ff0
0380
1f80
7380
6380
e380
e380
e380
e380
e380
7380
3fc0
ENDCHAR
STARTCHAR nacute
ENCODING 241
SWIDTH 638 0
DWIDTH 12 0
BBX 11 15 1 0
BITMAP
0180
0380
0600
0800
0000
3780
f9c0
71c0
71c0
71c0
71c0
71c0
71c0
71c0
fbe0
ENDCHAR
STARTCHAR ncaron
ENCODING 242
SWIDTH 638 0
DWIDTH 12 0
BBX 11 15 1 0
BITMAP
4100
3600
1c00
0800
0000
3780
f9c0
71c0
71c0
71c0
71c0
71c0
71c0
71c0
fbe0
ENDCHAR
STARTCHAR oacute
ENCODING 243
SWIDTH 585 0
DWIDTH 11 0
BBX 10 15 1 0
BITMAP
0100
0380
0700
0c00
1000
1e00
7380
6180
e1c0
e1c0
e1c0
e1c0
6180
7380
1e00
ENDCHAR
STARTCHAR ocircumflex
ENCODING 244
SWIDTH 585 0
DWIDTH 11 0
BBX 10 14 1 0
BITMAP
0c00
1e00
3300
4080
1e00
7380
6180
e1c0
e1c0
e1c0
e1c0
6180
7380
1e00
ENDCHAR
STARTCHAR odoubleacute
ENCODING 245
SWIDTH 585 0
DWIDTH 11 0
BBX 10 15 1 0
BITMAP
1980
1980
1300
2200
0000
1e00
7380
6180
e1c0
e1c0
e1c0
e1c0
6180
7380
1e00
ENDCHAR
STARTCHAR odiaeresis
ENCODING 246
SWIDTH 585 0
DWIDTH 11 0
BBX 10 14 1 0
BITMAP
7380
7380
7380
0000
1e00
7380
6180
e1c0
e1c0
e1c0
e1c0
6180
7380
1e00
ENDCHAR
STARTCHAR division
ENCODING 247
SWIDTH 600 0
DWIDTH 12 0
BBX 9 10 1 0
BITMAP
0800
1c00
0800
0000
ff80
ff80
0000
0800
1c00
0800
ENDCHAR
STARTCHAR rcaron
ENCODING 248
SWIDTH 440 0
DWIDTH 9 0
BBX 8 15 1 0
BITMAP
82
6c
38
10
00
36
ff
76
70
70
70
70
70
70
fc
ENDCHAR
STARTCHAR uring
ENCODING 249
SWIDTH 629 0
DWIDTH 12 0
BBX 11 16 1 0
BITMAP
0c00
1200
1200
1200
0c00
0000
30c0
f3c0
71c0
71c0
71c0
71c0
71c0
71c0
7fc0
19e0
ENDCHAR
STARTCHAR uacute
ENCODING 250
SWIDTH 629 0
DWIDTH 12 0
BBX 11 15 1 0
BITMAP
0080
0180
0300
0600
0800
30c0
f3c0
71c0
71c0
71c0
71c0
71c0
71c0
7fc0
19e0
ENDCHAR
STARTCHAR udoubleacute
ENCODING 251
SWIDTH 629 0
DWIDTH 12 0
BBX 11 15 1 0
BITMAP
1980
1980
1300
2200
0000
30c0
f3c0
71c0
71c0
71c0
71c0
71c0
71c0
7fc0
19e0
ENDCHAR
STARTCHAR udiaeresis
ENCODING 252
SWIDTH 629 0
DWIDTH 12 0
BBX 11 14 1 0
BITMAP
7380
7380
7380
0000
30c0
f3c0
71c0
71c0
71c0
71c0
71c0
71c0
7fc0
19e0
ENDCHAR
STARTCHAR yacute
ENCODING 253
SWIDTH 524 0
DWIDTH 10 0
BBX 11 19 0 -4
BITMAP
0080
01c0
0380
0600
0800
f9e0
70c0
3080
3980
3900
1d00
1f00
1e00
0e00
0c00
0c00
2800
7800
3000
ENDCHAR
STARTCHAR tcedilla
ENCODING 254
SWIDTH 370 0
DWIDTH 7 0
BBX 7 18 1 -6
BITMAP
30
30
fc
70
70
70
70
70
70
70
70
3e
08
10
1c
0c
0c
38
ENDCHAR
STARTCHAR abovedot
ENCODING 255
SWIDTH 430 0
DWIDTH 8 0
BBX 3 3 3 11
BITMAP
e0
e0
e0
ENDCHAR
ENDFONT
